<?xml version="1.0" encoding="UTF-8"?>
<svg width="22px" height="26px" viewBox="0 0 22 26" version="1.1" xmlns="http://www.w3.org/2000/svg" xmlns:xlink="http://www.w3.org/1999/xlink">
    <!-- Generator: Sketch 58 (84663) - https://sketch.com -->
    <title>Torre bio -isotype - dark</title>
    <desc>Created with Sketch.</desc>
    <g id="Torre-bio--isotype---dark" stroke="none" stroke-width="1" fill="none" fill-rule="evenodd">
        <path d="M12.5032306,2.28769646 C11.5733868,1.74930756 10.4266132,1.74930756 9.49676937,2.28769646 L2.49676937,6.3407666 C1.57038715,6.87715119 1,7.86651127 1,8.93697493 L1,17.0630251 C1,18.1334887 1.57038715,19.1228488 2.49676937,19.6592334 L9.49676937,23.7123035 C10.4266132,24.2506924 11.5733868,24.2506924 12.5032306,23.7123035 L19.5032306,19.6592334 C20.4296128,19.1228488 21,18.1334887 21,17.0630251 L21,8.93697493 C21,7.86651127 20.4296128,6.87715119 19.5032306,6.3407666 L12.5032306,2.28769646 Z" id="Polygon-Copy-28" stroke="#D69600" stroke-width="2" fill="#332B19"></path>
        <g id="person-24px" transform="translate(3.000000, 4.000000)">
            <path d="M8,8 C9.38125,8 10.5,6.88125 10.5,5.5 C10.5,4.11875 9.38125,3 8,3 C6.61875,3 5.5,4.11875 5.5,5.5 C5.5,6.88125 6.61875,8 8,8 Z M8,9.25 C6.33125,9.25 3,10.0875 3,11.75 L3,13 L13,13 L13,11.75 C13,10.0875 9.66875,9.25 8,9.25 Z" id="Shape" fill-opacity="0.9" fill="#FFFFFF" fill-rule="nonzero"></path>
            <polygon id="Path" points="0 0 16 0 16 16 0 16"></polygon>
        </g>
    </g>
</svg>