<?xml version="1.0" encoding="UTF-8"?>
<svg width="22px" height="26px" viewBox="0 0 22 26" version="1.1" xmlns="http://www.w3.org/2000/svg" xmlns:xlink="http://www.w3.org/1999/xlink">
    <!-- Generator: Sketch 58 (84663) - https://sketch.com -->
    <title>Torre board -isotype - dark </title>
    <desc>Created with Sketch.</desc>
    <g id="Torre-board--isotype---dark-" stroke="none" stroke-width="1" fill="none" fill-rule="evenodd">
        <path d="M12.5032306,2.28769646 C11.5733868,1.74930756 10.4266132,1.74930756 9.49676937,2.28769646 L2.49676937,6.3407666 C1.57038715,6.87715119 1,7.86651127 1,8.93697493 L1,17.0630251 C1,18.1334887 1.57038715,19.1228488 2.49676937,19.6592334 L9.49676937,23.7123035 C10.4266132,24.2506924 11.5733868,24.2506924 12.5032306,23.7123035 L19.5032306,19.6592334 C20.4296128,19.1228488 21,18.1334887 21,17.0630251 L21,8.93697493 C21,7.86651127 20.4296128,6.87715119 19.5032306,6.3407666 L12.5032306,2.28769646 Z" id="Polygon-Copy-28" stroke="#D69600" stroke-width="2" fill="#332B19"></path>
        <g id="bullhorn-(1)" transform="translate(6.000000, 8.000000)" fill="#FFFFFF" fill-opacity="0.9" fill-rule="nonzero">
            <path d="M5.64102564,2.11764706 L1.12820513,2.11764706 C0.505114641,2.11764706 0,2.5916985 0,3.17647059 L0,5.29411765 C0,5.87888974 0.505114641,6.35294118 1.12820513,6.35294118 L1.69230769,6.35294118 L1.69230769,8.47058824 C1.69230769,8.76297428 1.94486501,9 2.25641026,9 L3.38461538,9 C3.69616063,9 3.94871795,8.76297428 3.94871795,8.47058824 L3.94871795,6.35294118 L5.64102564,6.35294118 L8.46153846,8.47058824 L8.46153846,0 L5.64102564,2.11764706 L5.64102564,2.11764706 Z M11,4.23529412 C11,5.14058824 10.4584615,5.96117647 9.58974359,6.35294118 L9.58974359,2.11764706 C10.4528205,2.51470588 11,3.33529412 11,4.23529412 Z" id="Shape"></path>
        </g>
    </g>
</svg>