<?xml version="1.0" encoding="UTF-8"?>
<svg width="22px" height="26px" viewBox="0 0 22 26" version="1.1" xmlns="http://www.w3.org/2000/svg" xmlns:xlink="http://www.w3.org/1999/xlink">
    <!-- Generator: Sketch 58 (84663) - https://sketch.com -->
    <title>Torre job alerts -isotype - dark</title>
    <desc>Created with Sketch.</desc>
    <g id="Torre-job-alerts--isotype---dark" stroke="none" stroke-width="1" fill="none" fill-rule="evenodd">
        <path d="M12.5032306,2.28769646 C11.5733868,1.74930756 10.4266132,1.74930756 9.49676937,2.28769646 L2.49676937,6.3407666 C1.57038715,6.87715119 1,7.86651127 1,8.93697493 L1,17.0630251 C1,18.1334887 1.57038715,19.1228488 2.49676937,19.6592334 L9.49676937,23.7123035 C10.4266132,24.2506924 11.5733868,24.2506924 12.5032306,23.7123035 L19.5032306,19.6592334 C20.4296128,19.1228488 21,18.1334887 21,17.0630251 L21,8.93697493 C21,7.86651127 20.4296128,6.87715119 19.5032306,6.3407666 L12.5032306,2.28769646 Z" id="Polygon-Copy-28" stroke="#D69600" stroke-width="2" fill="#332B19"></path>
        <g id="arrow-decision" transform="translate(5.000000, 7.000000)" fill="#FFFFFF" fill-opacity="0.9" fill-rule="nonzero">
            <path d="M6.5,1.97628458 L5,1.97628458 L7,0 L9,1.97628458 L7.5,1.97628458 L7.5,4.16501976 C7.125,4.39229249 6.79,4.67391304 6.5,5 L6.5,1.97628458 L6.5,1.97628458 Z M12,5.39982611 L9.53866732,3 L9.53866732,4.79986958 C7.31731458,4.70987611 5.42208841,6.34175786 5.23133513,8.50160136 C4.27141538,8.83157745 3.76684218,9.86350268 4.10527543,10.7994349 C4.44370867,11.7353671 5.50208172,12.2273314 6.46200147,11.8973553 C7.42192121,11.5613797 7.92649441,10.535454 7.58806117,9.59952181 C7.40346122,9.0835592 6.98503466,8.68158832 6.46200147,8.50160136 C6.75120806,6.10177525 9.21254074,5.98178395 9.50790066,5.98178395 L9.50790066,7.78165353 L12,5.39982611 L12,5.39982611 Z M5,5.295 C4.22943221,4.785 3.28505214,4.5 2.3174971,4.5 L2.3174971,3 L0,5 L2.3174971,7 L2.3174971,5.5 C3.09385863,5.515 3.84125145,5.75 4.42641947,6.2 C4.57126304,5.88 4.76245655,5.575 5,5.295 Z" id="Shape"></path>
        </g>
    </g>
</svg>