<?xml version="1.0" encoding="UTF-8"?>
<svg width="22px" height="26px" viewBox="0 0 22 26" version="1.1" xmlns="http://www.w3.org/2000/svg" xmlns:xlink="http://www.w3.org/1999/xlink">
    <!-- Generator: Sketch 58 (84663) - https://sketch.com -->
    <title>Torre managed -isotype - dark</title>
    <desc>Created with Sketch.</desc>
    <g id="Torre-managed--isotype---dark" stroke="none" stroke-width="1" fill="none" fill-rule="evenodd">
        <path d="M12.5032306,2.28769646 C11.5733868,1.74930756 10.4266132,1.74930756 9.49676937,2.28769646 L2.49676937,6.3407666 C1.57038715,6.87715119 1,7.86651127 1,8.93697493 L1,17.0630251 C1,18.1334887 1.57038715,19.1228488 2.49676937,19.6592334 L9.49676937,23.7123035 C10.4266132,24.2506924 11.5733868,24.2506924 12.5032306,23.7123035 L19.5032306,19.6592334 C20.4296128,19.1228488 21,18.1334887 21,17.0630251 L21,8.93697493 C21,7.86651127 20.4296128,6.87715119 19.5032306,6.3407666 L12.5032306,2.28769646 Z" id="Polygon-Copy-28" stroke="#D69600" stroke-width="2" fill="#332B19"></path>
        <g id="room-service-copy" transform="translate(6.000000, 6.000000)" fill="#FFFFFF" fill-opacity="0.9" fill-rule="nonzero">
            <path d="M5.94,4.61428571 C7.975,5 9.5,6.62380952 9.5,8.57142857 L0.5,8.57142857 C0.5,6.62380952 2.025,5 4.06,4.61428571 C4.02,4.50952381 5.98,4.50952381 5.94,4.61428571 Z M6.02380952,2.85714286 C6.28680226,2.85714286 6.5,3.0703406 6.5,3.33333333 C6.5,3.59632607 6.28680226,3.80952381 6.02380952,3.80952381 L6.02380952,3.80952381 L5.73809524,3.80952381 C5.60659887,3.80952381 5.5,3.91612268 5.5,4.04761905 C5.5,4.17911542 5.39340113,4.28571429 5.26190476,4.28571429 L5.26190476,4.28571429 L4.73809524,4.28571429 C4.60659887,4.28571429 4.5,4.17911542 4.5,4.04761905 C4.5,3.91612268 4.39340113,3.80952381 4.26190476,3.80952381 L4.26190476,3.80952381 L3.97619048,3.80952381 C3.71319774,3.80952381 3.5,3.59632607 3.5,3.33333333 C3.5,3.0703406 3.71319774,2.85714286 3.97619048,2.85714286 L3.97619048,2.85714286 Z M10,10 L0,10 L0,9.04761905 L10,9.04761905 L10,10 Z" id="Shape"></path>
        </g>
    </g>
</svg>