<?xml version="1.0" encoding="UTF-8"?>
<svg width="22px" height="26px" viewBox="0 0 22 26" version="1.1" xmlns="http://www.w3.org/2000/svg" xmlns:xlink="http://www.w3.org/1999/xlink">
    <!-- Generator: Sketch 58 (84663) - https://sketch.com -->
    <title>Torre protocol -isotype - dark </title>
    <desc>Created with Sketch.</desc>
    <g id="Torre-protocol--isotype---dark-" stroke="none" stroke-width="1" fill="none" fill-rule="evenodd">
        <path d="M12.5032306,2.28769646 C11.5733868,1.74930756 10.4266132,1.74930756 9.49676937,2.28769646 L2.49676937,6.3407666 C1.57038715,6.87715119 1,7.86651127 1,8.93697493 L1,17.0630251 C1,18.1334887 1.57038715,19.1228488 2.49676937,19.6592334 L9.49676937,23.7123035 C10.4266132,24.2506924 11.5733868,24.2506924 12.5032306,23.7123035 L19.5032306,19.6592334 C20.4296128,19.1228488 21,18.1334887 21,17.0630251 L21,8.93697493 C21,7.86651127 20.4296128,6.87715119 19.5032306,6.3407666 L12.5032306,2.28769646 Z" id="Polygon-Copy-28" stroke="#D69600" stroke-width="2" fill="#332B19"></path>
        <path d="M13.9176667,11.12 L11.1736667,11.12 L11.1736667,14.522 C11.1736667,15.404 11.5656667,15.698 12.2796667,15.698 C12.5876667,15.698 12.8816667,15.656 13.2316667,15.544 L13.2316667,16.902 C12.8536667,17.028 12.4196667,17.112 11.8876667,17.112 C10.2356667,17.112 9.47966667,16.454 9.47966667,14.606 L9.47966667,11.12 L6.87566667,11.12 L6.87566667,9.608 L13.9176667,9.608 L13.9176667,11.12 Z" id="τ" fill-opacity="0.9" fill="#FFFFFF" fill-rule="nonzero"></path>
    </g>
</svg>