<?xml version="1.0" encoding="UTF-8"?>
<svg width="22px" height="26px" viewBox="0 0 22 26" version="1.1" xmlns="http://www.w3.org/2000/svg" xmlns:xlink="http://www.w3.org/1999/xlink">
    <!-- Generator: Sketch 58 (84663) - https://sketch.com -->
    <title>Torre remoter -isotype - dark</title>
    <desc>Created with Sketch.</desc>
    <g id="Torre-remoter--isotype---dark" stroke="none" stroke-width="1" fill="none" fill-rule="evenodd">
        <path d="M12.5032306,2.28769646 C11.5733868,1.74930756 10.4266132,1.74930756 9.49676937,2.28769646 L2.49676937,6.3407666 C1.57038715,6.87715119 1,7.86651127 1,8.93697493 L1,17.0630251 C1,18.1334887 1.57038715,19.1228488 2.49676937,19.6592334 L9.49676937,23.7123035 C10.4266132,24.2506924 11.5733868,24.2506924 12.5032306,23.7123035 L19.5032306,19.6592334 C20.4296128,19.1228488 21,18.1334887 21,17.0630251 L21,8.93697493 C21,7.86651127 20.4296128,6.87715119 19.5032306,6.3407666 L12.5032306,2.28769646 Z" id="Polygon-Copy-28" stroke="#D69600" stroke-width="2" fill="#332B19"></path>
        <g id="earth" transform="translate(5.000000, 7.000000)" fill="#FFFFFF" fill-opacity="0.9" fill-rule="nonzero">
            <path d="M9.54,9.234 C9.384,8.754 8.934,8.4 8.4,8.4 L7.8,8.4 L7.8,6.6 C7.8,6.26862915 7.53137085,6 7.2,6 L3.6,6 L3.6,4.8 L4.8,4.8 C5.13137085,4.8 5.4,4.53137085 5.4,4.2 L5.4,3 L6.6,3 C7.2627417,3 7.8,2.4627417 7.8,1.8 L7.8,1.554 C9.558,2.262 10.8,3.984 10.8,6 C10.8,7.248 10.32,8.382 9.54,9.234 L9.54,9.234 Z M5.4,10.758 C3.03,10.464 1.2,8.448 1.2,6 C1.2,5.628 1.248,5.268 1.326,4.926 L4.2,7.8 L4.2,8.4 C4.2,9.0627417 4.7372583,9.6 5.4,9.6 L5.4,10.758 Z M6,0 C2.6862915,0 0,2.6862915 0,6 C0,7.59129894 0.632141042,9.11742242 1.75735931,10.2426407 C2.88257758,11.367859 4.40870106,12 6,12 C7.59129894,12 9.11742242,11.367859 10.2426407,10.2426407 C11.367859,9.11742242 12,7.59129894 12,6 C12,4.40870106 11.367859,2.88257758 10.2426407,1.75735931 C9.11742242,0.632141042 7.59129894,0 6,0 Z" id="Shape"></path>
        </g>
    </g>
</svg>