<?xml version="1.0" encoding="UTF-8"?>
<svg width="22px" height="26px" viewBox="0 0 22 26" version="1.1" xmlns="http://www.w3.org/2000/svg" xmlns:xlink="http://www.w3.org/1999/xlink">
    <!-- Generator: Sketch 58 (84663) - https://sketch.com -->
    <title>Torre search -isotype - dark</title>
    <desc>Created with Sketch.</desc>
    <g id="Torre-search--isotype---dark" stroke="none" stroke-width="1" fill="none" fill-rule="evenodd">
        <path d="M12.5032306,2.28769646 C11.5733868,1.74930756 10.4266132,1.74930756 9.49676937,2.28769646 L2.49676937,6.3407666 C1.57038715,6.87715119 1,7.86651127 1,8.93697493 L1,17.0630251 C1,18.1334887 1.57038715,19.1228488 2.49676937,19.6592334 L9.49676937,23.7123035 C10.4266132,24.2506924 11.5733868,24.2506924 12.5032306,23.7123035 L19.5032306,19.6592334 C20.4296128,19.1228488 21,18.1334887 21,17.0630251 L21,8.93697493 C21,7.86651127 20.4296128,6.87715119 19.5032306,6.3407666 L12.5032306,2.28769646 Z" id="Polygon-Copy-28" stroke="#D69600" stroke-width="2" fill="#332B19"></path>
        <g id="baseline-search-24px-(2)" transform="translate(3.000000, 5.000000)">
            <path d="M9.86163522,8.91823899 L9.36477987,8.91823899 L9.18867925,8.74842767 C9.80503145,8.03144654 10.1761006,7.10062893 10.1761006,6.08805031 C10.1761006,3.83018868 8.34591195,2 6.08805031,2 C3.83018868,2 2,3.83018868 2,6.08805031 C2,8.34591195 3.83018868,10.1761006 6.08805031,10.1761006 C7.10062893,10.1761006 8.03144654,9.80503145 8.74842767,9.18867925 L8.91823899,9.36477987 L8.91823899,9.86163522 L12.0628931,13 L13,12.0628931 L9.86163522,8.91823899 Z M6.08805031,8.91823899 C4.52201258,8.91823899 3.25786164,7.65408805 3.25786164,6.08805031 C3.25786164,4.52201258 4.52201258,3.25786164 6.08805031,3.25786164 C7.65408805,3.25786164 8.91823899,4.52201258 8.91823899,6.08805031 C8.91823899,7.65408805 7.65408805,8.91823899 6.08805031,8.91823899 Z" id="Shape" fill-opacity="0.9" fill="#FFFFFF" fill-rule="nonzero"></path>
            <polygon id="Path" points="0 0 16 0 16 16 0 16"></polygon>
        </g>
    </g>
</svg>