<?xml version="1.0" encoding="UTF-8"?>
<svg width="22px" height="26px" viewBox="0 0 22 26" version="1.1" xmlns="http://www.w3.org/2000/svg" xmlns:xlink="http://www.w3.org/1999/xlink">
    <!-- Generator: Sketch 58 (84663) - https://sketch.com -->
    <title>Torre signals -isotype - dark</title>
    <desc>Created with Sketch.</desc>
    <g id="Torre-signals--isotype---dark" stroke="none" stroke-width="1" fill="none" fill-rule="evenodd">
        <path d="M12.5032306,2.28769646 C11.5733868,1.74930756 10.4266132,1.74930756 9.49676937,2.28769646 L2.49676937,6.3407666 C1.57038715,6.87715119 1,7.86651127 1,8.93697493 L1,17.0630251 C1,18.1334887 1.57038715,19.1228488 2.49676937,19.6592334 L9.49676937,23.7123035 C10.4266132,24.2506924 11.5733868,24.2506924 12.5032306,23.7123035 L19.5032306,19.6592334 C20.4296128,19.1228488 21,18.1334887 21,17.0630251 L21,8.93697493 C21,7.86651127 20.4296128,6.87715119 19.5032306,6.3407666 L12.5032306,2.28769646 Z" id="Polygon-Copy-28" stroke="#D69600" stroke-width="2" fill="#332B19"></path>
        <g id="human-greeting" transform="translate(5.000000, 9.000000)" fill="#FFFFFF" fill-opacity="0.9" fill-rule="nonzero">
            <path d="M0,0 L0,0.84375 C0,3.178125 1.29365854,5.22 3.2195122,6.35625 L3.2195122,9 L12,9 L12,7.875 C12,6.37875 8.88,5.625 7.31707317,5.625 C7.31707317,5.625 7.21756098,5.625 7.17073171,5.625 C4.3902439,5.625 2.04878049,3.375 2.04878049,0.84375 L2.04878049,0 L0,0 Z M7.31707317,0 C6.02391863,0 4.97560976,1.00735931 4.97560976,2.25 C4.97560976,3.49264069 6.02391863,4.5 7.31707317,4.5 C8.61022771,4.5 9.65853659,3.49264069 9.65853659,2.25 C9.65853659,1.00735931 8.61022771,0 7.31707317,0 Z" id="Shape"></path>
        </g>
    </g>
</svg>