<?xml version="1.0" encoding="UTF-8"?>
<svg width="22px" height="26px" viewBox="0 0 22 26" version="1.1" xmlns="http://www.w3.org/2000/svg" xmlns:xlink="http://www.w3.org/1999/xlink">
    <!-- Generator: Sketch 58 (84663) - https://sketch.com -->
    <title>Torre suite -isotype - dark</title>
    <desc>Created with Sketch.</desc>
    <g id="Torre-suite--isotype---dark" stroke="none" stroke-width="1" fill="none" fill-rule="evenodd">
        <path d="M12.5032306,2.28769646 C11.5733868,1.74930756 10.4266132,1.74930756 9.49676937,2.28769646 L2.49676937,6.3407666 C1.57038715,6.87715119 1,7.86651127 1,8.93697493 L1,17.0630251 C1,18.1334887 1.57038715,19.1228488 2.49676937,19.6592334 L9.49676937,23.7123035 C10.4266132,24.2506924 11.5733868,24.2506924 12.5032306,23.7123035 L19.5032306,19.6592334 C20.4296128,19.1228488 21,18.1334887 21,17.0630251 L21,8.93697493 C21,7.86651127 20.4296128,6.87715119 19.5032306,6.3407666 L12.5032306,2.28769646 Z" id="Polygon-Copy-28" stroke="#D69600" stroke-width="2" fill="#332B19"></path>
        <path d="M16.5714286,11.7142857 L15.7142857,11.7142857 L15.7142857,9.42857143 C15.7142857,8.79428571 15.2,8.28571429 14.5714286,8.28571429 L12.2857143,8.28571429 L12.2857143,7.42857143 C12.2857143,6.63959321 11.6461211,6 10.8571429,6 C10.0681646,6 9.42857143,6.63959321 9.42857143,7.42857143 L9.42857143,8.28571429 L7.14285714,8.28571429 C6.51167457,8.28571429 6,8.79738886 6,9.42857143 L6,11.6 L6.85714286,11.6 C7.71428571,11.6 8.4,12.2857143 8.4,13.1428571 C8.4,14 7.71428571,14.6857143 6.85714286,14.6857143 L6,14.6857143 L6,16.8571429 C6,17.4883254 6.51167457,18 7.14285714,18 L9.31428571,18 L9.31428571,17.1428571 C9.31428571,16.2857143 10,15.6 10.8571429,15.6 C11.7142857,15.6 12.4,16.2857143 12.4,17.1428571 L12.4,18 L14.5714286,18 C15.2026111,18 15.7142857,17.4883254 15.7142857,16.8571429 L15.7142857,14.5714286 L16.5714286,14.5714286 C17.3604068,14.5714286 18,13.9318354 18,13.1428571 C18,12.3538789 17.3604068,11.7142857 16.5714286,11.7142857 Z" id="Path" fill-opacity="0.9" fill="#FFFFFF" fill-rule="nonzero"></path>
    </g>
</svg>