<svg xmlns="http://www.w3.org/2000/svg" width="30" height="16"><path d="M6.22 15.22c-1.92 0-3.16-1.04-3.96-2.2V15H.72V.4h1.54v6.34c.84-1.24 2.06-2.3 3.96-2.3 2.48 0 4.94 1.96 4.94 5.36v.04c0 3.38-2.44 5.38-4.94 5.38zm-.28-1.38c2 0 3.64-1.48 3.64-3.98v-.04c0-2.44-1.68-4-3.64-4-1.92 0-3.74 1.62-3.74 3.98v.04c0 2.4 1.82 4 3.74 4zm8.1-11.44V.7h1.76v1.7h-1.76zm.1 12.6V4.66h1.54V15h-1.54zm9.84.24c-3.1 0-5.36-2.44-5.36-5.36v-.04c0-2.92 2.28-5.4 5.4-5.4A5.31 5.31 0 0 1 29.4 9.8v.04c0 2.92-2.3 5.4-5.42 5.4zm.04-1.38c2.24 0 3.8-1.8 3.8-3.98v-.04c0-2.22-1.66-4.04-3.84-4.04-2.24 0-3.78 1.82-3.78 4v.04c0 2.22 1.64 4.02 3.82 4.02z" fill="#D69600" fill-rule="nonzero"/></svg>
