<svg xmlns="http://www.w3.org/2000/svg" width="57" height="16"><path d="M6.22 15.22c-1.92 0-3.16-1.04-3.96-2.2V15H.72V.4h1.54v6.34c.84-1.24 2.06-2.3 3.96-2.3 2.48 0 4.94 1.96 4.94 5.36v.04c0 3.38-2.44 5.38-4.94 5.38zm-.28-1.38c2 0 3.64-1.48 3.64-3.98v-.04c0-2.44-1.68-4-3.64-4-1.92 0-3.74 1.62-3.74 3.98v.04c0 2.4 1.82 4 3.74 4zm12.78 1.4c-3.1 0-5.36-2.44-5.36-5.36v-.04c0-2.92 2.28-5.4 5.4-5.4a5.31 5.31 0 0 1 5.38 5.36v.04c0 2.92-2.3 5.4-5.42 5.4zm.04-1.38c2.24 0 3.8-1.8 3.8-3.98v-.04c0-2.22-1.66-4.04-3.84-4.04-2.24 0-3.78 1.82-3.78 4v.04c0 2.22 1.64 4.02 3.82 4.02zM30 15.22c-1.92 0-3.86-1.1-3.86-3.22v-.04c0-2.18 1.8-3.34 4.42-3.34 1.32 0 2.26.18 3.18.44V8.7c0-1.86-1.14-2.82-3.08-2.82-1.22 0-2.18.32-3.14.76l-.46-1.26c1.14-.52 2.26-.86 3.76-.86 1.46 0 2.58.38 3.34 1.14.7.7 1.06 1.7 1.06 3.02V15h-1.48v-1.56c-.72.94-1.92 1.78-3.74 1.78zm.3-1.22c1.9 0 3.46-1.16 3.46-2.8v-1c-.76-.22-1.78-.44-3.04-.44-1.94 0-3.02.84-3.02 2.14v.04c0 1.3 1.2 2.06 2.6 2.06zm8.2 1V4.66h1.54v2.7c.76-1.72 2.26-2.96 4.22-2.88v1.66h-.12c-2.26 0-4.1 1.62-4.1 4.74V15H38.5zm12.02.22c-2.48 0-4.94-1.96-4.94-5.36v-.04c0-3.38 2.46-5.38 4.94-5.38 1.92 0 3.16 1.04 3.96 2.2V.4h1.54V15h-1.54v-2.08c-.84 1.24-2.06 2.3-3.96 2.3zm.28-1.38c1.92 0 3.74-1.62 3.74-4V9.8c0-2.38-1.82-3.98-3.74-3.98-2 0-3.64 1.48-3.64 3.98v.04c0 2.44 1.68 4 3.64 4z" fill="#D69600" fill-rule="nonzero"/></svg>
