<svg xmlns="http://www.w3.org/2000/svg" width="86" height="19" viewBox="0 0 108 24"><path d="M3.238 3.25V1.125h2.2V3.25h-2.2zm-1.1 19.825c-.45 0-.775-.025-1.2-.125v-1.575a6.33 6.33 0 0 0 .95.075c.875 0 1.475-.525 1.475-1.725V6.075h1.925V19.75c0 2.275-1.2 3.325-3.15 3.325zM15.663 19.3c-3.875 0-6.7-3.05-6.7-6.7v-.05c0-3.65 2.85-6.75 6.75-6.75 3.875 0 6.725 3.05 6.725 6.7v.05c0 3.65-2.875 6.75-6.775 6.75zm.05-1.725c2.8 0 4.75-2.25 4.75-4.975v-.05c0-2.775-2.075-5.05-4.8-5.05-2.8 0-4.725 2.275-4.725 5v.05c0 2.775 2.05 5.025 4.775 5.025zm17.075 1.7c-2.4 0-3.95-1.3-4.95-2.75V19h-1.925V.75h1.925v7.925c1.05-1.55 2.575-2.875 4.95-2.875 3.1 0 6.175 2.45 6.175 6.7v.05c0 4.225-3.05 6.725-6.175 6.725zm-.35-1.725c2.5 0 4.55-1.85 4.55-4.975v-.05c0-3.05-2.1-5-4.55-5-2.4 0-4.675 2.025-4.675 4.975v.05c0 3 2.275 5 4.675 5zm14.125 1.75c-2.375 0-4.925-1.35-4.925-4v-.05c0-2.65 2.275-4.15 5.575-4.15a15.34 15.34 0 0 1 4.225.55v-.55c0-2.575-1.575-3.9-4.2-3.9-1.55 0-2.825.425-4 1.025l-.45-1.075c1.4-.65 2.775-1.1 4.525-1.1 1.725 0 3.1.475 4.025 1.4.85.85 1.3 2.025 1.3 3.6V19h-1.2v-2.125c-.875 1.225-2.45 2.425-4.875 2.425zm.075-1.15c2.6 0 4.825-1.6 4.825-3.925v-1.45c-1.075-.275-2.5-.575-4.325-.575-2.7 0-4.2 1.2-4.2 2.975v.05c0 1.85 1.75 2.925 3.7 2.925zm10.575.85V.75h1.225V19h-1.225zm11.425.3c-3.35 0-6.25-2.675-6.25-6.65v-.05c0-3.7 2.6-6.65 6.05-6.65 3.575 0 5.85 2.9 5.85 6.675 0 .225 0 .3-.025.5H63.688c.225 3.175 2.5 5.025 5 5.025 1.975 0 3.325-.875 4.375-2l.85.75c-1.3 1.4-2.825 2.4-5.275 2.4zm-4.95-7.275h9.275c-.175-2.575-1.65-4.95-4.575-4.95-2.525 0-4.475 2.125-4.7 4.95zM77.863 19V6.25h1.225v3.625c1-2.275 3.125-3.925 5.65-3.825V7.4h-.125c-2.95 0-5.525 2.225-5.525 6.375V19h-1.225zm14.25.225c-1.975 0-3.575-1.075-3.575-3.5v-8.35h-1.85V6.25h1.85V2.175h1.225V6.25h4.475v1.125h-4.475V15.6c0 1.825 1.075 2.475 2.55 2.475.625 0 1.15-.125 1.875-.45v1.15a4.68 4.68 0 0 1-2.075.45zm9.875.025c-1.85 0-3.875-.75-5.225-1.85l.725-.975c1.4 1.075 2.95 1.675 4.575 1.675 1.725 0 3.075-.95 3.075-2.425v-.05c0-1.5-1.6-2.05-3.375-2.55-2.075-.6-4.375-1.225-4.375-3.5v-.05c0-2.05 1.725-3.525 4.2-3.525 1.525 0 3.25.55 4.525 1.4l-.65 1.025c-1.175-.775-2.575-1.275-3.925-1.275-1.75 0-2.9.95-2.9 2.225v.05c0 1.425 1.725 1.95 3.55 2.475 2.05.575 4.2 1.325 4.2 3.575v.05c0 2.275-1.95 3.725-4.4 3.725z" fill="#D69600" fill-rule="nonzero"/></svg>
