<svg xmlns="http://www.w3.org/2000/svg" width="91" height="18"><path d="M.72 14.655V4.315h1.54v1.74c.68-1.02 1.6-1.96 3.34-1.96 1.68 0 2.76.9 3.32 2.06.74-1.14 1.84-2.06 3.64-2.06 2.38 0 3.84 1.6 3.84 4.16v6.4h-1.54v-6.04c0-2-1-3.12-2.68-3.12-1.56 0-2.86 1.16-2.86 3.2v5.96H7.8v-6.08c0-1.94-1.02-3.08-2.66-3.08s-2.88 1.36-2.88 3.26v5.9H.72zm22.04.22c-1.92 0-3.86-1.1-3.86-3.22v-.04c0-2.18 1.8-3.34 4.42-3.34 1.32 0 2.26.18 3.18.44v-.36c0-1.86-1.14-2.82-3.08-2.82-1.22 0-2.18.32-3.14.76l-.46-1.26c1.14-.52 2.26-.86 3.76-.86 1.46 0 2.58.38 3.34 1.14.7.7 1.06 1.7 1.06 3.02v6.32H26.5v-1.56c-.72.94-1.92 1.78-3.74 1.78zm.3-1.22c1.9 0 3.46-1.16 3.46-2.8v-1c-.76-.22-1.78-.44-3.04-.44-1.94 0-3.02.84-3.02 2.14v.04c0 1.3 1.2 2.06 2.6 2.06zm8.2 1V4.315h1.54v1.8c.68-1.12 1.76-2.02 3.54-2.02 2.5 0 3.96 1.68 3.96 4.14v6.42h-1.54v-6.04c0-1.92-1.04-3.12-2.86-3.12-1.78 0-3.1 1.3-3.1 3.24v5.92h-1.54zm15.4.22c-1.92 0-3.86-1.1-3.86-3.22v-.04c0-2.18 1.8-3.34 4.42-3.34 1.32 0 2.26.18 3.18.44v-.36c0-1.86-1.14-2.82-3.08-2.82-1.22 0-2.18.32-3.14.76l-.46-1.26c1.14-.52 2.26-.86 3.76-.86 1.46 0 2.58.38 3.34 1.14.7.7 1.06 1.7 1.06 3.02v6.32H50.4v-1.56c-.72.94-1.92 1.78-3.74 1.78zm.3-1.22c1.9 0 3.46-1.16 3.46-2.8v-1c-.76-.22-1.78-.44-3.04-.44-1.94 0-3.02.84-3.02 2.14v.04c0 1.3 1.2 2.06 2.6 2.06zm12.78 4.24c-1.72 0-3.32-.48-4.7-1.44l.7-1.2c1.18.86 2.5 1.32 3.98 1.32 2.28 0 3.76-1.26 3.76-3.68v-1.22c-.9 1.2-2.16 2.18-4.06 2.18-2.48 0-4.86-1.86-4.86-4.84v-.04c0-3.02 2.4-4.88 4.86-4.88 1.94 0 3.2.96 4.04 2.08v-1.86H65v8.54c0 1.6-.48 2.82-1.32 3.66-.92.92-2.3 1.38-3.94 1.38zm-.02-5.4c1.96 0 3.8-1.42 3.8-3.5v-.04c0-2.12-1.84-3.5-3.8-3.5s-3.58 1.36-3.58 3.48v.04c0 2.08 1.66 3.52 3.58 3.52zm13.24 2.4c-2.84 0-5.16-2.18-5.16-5.38v-.04c0-2.98 2.1-5.38 4.96-5.38 3.06 0 4.82 2.44 4.82 5.46l-.02.5h-8.2c.22 2.24 1.8 3.5 3.64 3.5 1.42 0 2.42-.58 3.26-1.46l.96.86c-1.04 1.16-2.3 1.94-4.26 1.94zm-3.6-5.98h6.66c-.16-1.88-1.24-3.52-3.3-3.52-1.8 0-3.16 1.5-3.36 3.52zm15.26 5.96c-2.48 0-4.94-1.96-4.94-5.36v-.04c0-3.38 2.46-5.38 4.94-5.38 1.92 0 3.16 1.04 3.96 2.2V.055h1.54v14.6h-1.54v-2.08c-.84 1.24-2.06 2.3-3.96 2.3zm.28-1.38c1.92 0 3.74-1.62 3.74-4v-.04c0-2.38-1.82-3.98-3.74-3.98-2 0-3.64 1.48-3.64 3.98v.04c0 2.44 1.68 4 3.64 4z" fill="#D69600" fill-rule="nonzero"/></svg>
