<svg xmlns="http://www.w3.org/2000/svg" width="81" height="19"><path d="M.54 18.2V4.66h1.54v2.08c.84-1.24 2.06-2.3 3.96-2.3 2.48 0 4.94 1.96 4.94 5.36v.04c0 3.38-2.44 5.38-4.94 5.38-1.92 0-3.16-1.04-3.96-2.2v5.18H.54zm5.22-4.36c2 0 3.64-1.48 3.64-3.98v-.04c0-2.44-1.68-4-3.64-4-1.92 0-3.74 1.62-3.74 3.98v.04c0 2.4 1.82 4 3.74 4zM13.82 15V4.66h1.54v2.7c.76-1.72 2.26-2.96 4.22-2.88v1.66h-.12c-2.26 0-4.1 1.62-4.1 4.74V15h-1.54zm12.38.24c-3.1 0-5.36-2.44-5.36-5.36v-.04c0-2.92 2.28-5.4 5.4-5.4a5.31 5.31 0 0 1 5.38 5.36v.04c0 2.92-2.3 5.4-5.42 5.4zm.04-1.38c2.24 0 3.8-1.8 3.8-3.98v-.04c0-2.22-1.66-4.04-3.84-4.04-2.24 0-3.78 1.82-3.78 4v.04c0 2.22 1.64 4.02 3.82 4.02zm11.62 1.32c-1.66 0-2.92-.82-2.92-2.92V6.02H33.5V4.66h1.44V1.54h1.54v3.12h3.28v1.36h-3.28v6.04c0 1.26.7 1.72 1.74 1.72.52 0 .96-.1 1.5-.36v1.32c-.54.28-1.12.44-1.86.44zm9.04.06c-3.1 0-5.36-2.44-5.36-5.36v-.04c0-2.92 2.28-5.4 5.4-5.4a5.31 5.31 0 0 1 5.38 5.36v.04c0 2.92-2.3 5.4-5.42 5.4zm.04-1.38c2.24 0 3.8-1.8 3.8-3.98v-.04c0-2.22-1.66-4.04-3.84-4.04-2.24 0-3.78 1.82-3.78 4v.04c0 2.22 1.64 4.02 3.82 4.02zm12.82 1.38c-3.02 0-5.3-2.46-5.3-5.36v-.04c0-2.92 2.28-5.4 5.3-5.4 1.96 0 3.18.82 4.14 1.84l-1.02 1.08c-.82-.86-1.74-1.56-3.14-1.56-2.1 0-3.7 1.78-3.7 4v.04c0 2.24 1.64 4.02 3.8 4.02 1.32 0 2.34-.66 3.16-1.54l.98.92c-1.04 1.16-2.28 2-4.22 2zm11.18 0c-3.1 0-5.36-2.44-5.36-5.36v-.04c0-2.92 2.28-5.4 5.4-5.4a5.31 5.31 0 0 1 5.38 5.36v.04c0 2.92-2.3 5.4-5.42 5.4zm.04-1.38c2.24 0 3.8-1.8 3.8-3.98v-.04c0-2.22-1.66-4.04-3.84-4.04-2.24 0-3.78 1.82-3.78 4v.04c0 2.22 1.64 4.02 3.82 4.02zm8.3 1.14V.4h1.54V15h-1.54z" fill="#D69600" fill-rule="nonzero"/></svg>
