<svg xmlns="http://www.w3.org/2000/svg" width="78" height="15"><path d="M.67 14V3.66H2.2v2.7c.76-1.72 2.26-2.96 4.22-2.88v1.66H6.3c-2.26 0-4.1 1.62-4.1 4.74V14H.67zm12.18.24c-2.84 0-5.16-2.18-5.16-5.38v-.04c0-2.98 2.1-5.38 4.96-5.38 3.06 0 4.82 2.44 4.82 5.46l-.02.5h-8.2c.22 2.24 1.8 3.5 3.64 3.5 1.42 0 2.42-.58 3.26-1.46l.96.86c-1.04 1.16-2.3 1.94-4.26 1.94zm-3.6-5.98h6.66c-.16-1.88-1.24-3.52-3.3-3.52-1.8 0-3.16 1.5-3.36 3.52zM20.17 14V3.66h1.54V5.4c.68-1.02 1.6-1.96 3.34-1.96 1.68 0 2.76.9 3.32 2.06.74-1.14 1.84-2.06 3.64-2.06 2.38 0 3.84 1.6 3.84 4.16V14H34.3V7.96c0-2-1-3.12-2.68-3.12-1.56 0-2.86 1.16-2.86 3.2V14h-1.52V7.92c0-1.94-1.02-3.08-2.66-3.08S21.7 6.2 21.7 8.1V14h-1.54zm23.68.24c-3.1 0-5.36-2.44-5.36-5.36v-.04c0-2.92 2.28-5.4 5.4-5.4a5.31 5.31 0 0 1 5.38 5.36v.04c0 2.92-2.3 5.4-5.42 5.4zm.04-1.38c2.24 0 3.8-1.8 3.8-3.98v-.04c0-2.22-1.66-4.04-3.84-4.04-2.24 0-3.78 1.82-3.78 4v.04c0 2.22 1.64 4.02 3.82 4.02zm11.62 1.32c-1.66 0-2.92-.82-2.92-2.92V5.02h-1.44V3.66h1.44V.54h1.54v3.12h3.28v1.36h-3.28v6.04c0 1.26.7 1.72 1.74 1.72.52 0 .96-.1 1.5-.36v1.32c-.54.28-1.12.44-1.86.44zm8.84.06c-2.84 0-5.16-2.18-5.16-5.38v-.04c0-2.98 2.1-5.38 4.96-5.38 3.06 0 4.82 2.44 4.82 5.46l-.02.5h-8.2c.22 2.24 1.8 3.5 3.64 3.5 1.42 0 2.42-.58 3.26-1.46l.96.86c-1.04 1.16-2.3 1.94-4.26 1.94zm-3.6-5.98h6.66c-.16-1.88-1.24-3.52-3.3-3.52-1.8 0-3.16 1.5-3.36 3.52zM71.67 14V3.66h1.54v2.7c.76-1.72 2.26-2.96 4.22-2.88v1.66h-.12c-2.26 0-4.1 1.62-4.1 4.74V14h-1.54z" fill="#D69600" fill-rule="nonzero"/></svg>
