<?xml version="1.0" encoding="UTF-8"?>
<svg width="63px" height="16px" viewBox="0 0 63 16" version="1.1" xmlns="http://www.w3.org/2000/svg" xmlns:xlink="http://www.w3.org/1999/xlink">
<!-- Generator: Sketch 54 (76480) - https://sketchapp.com -->
<title>search</title>
<desc>Created with Sketch.</desc>
<g id="New-drawer-for-Torre" stroke="none" stroke-width="1" fill="none" fill-rule="evenodd">
<g id="All-tools" transform="translate(-73.000000, -484.000000)" fill="#D69600" fill-rule="nonzero">
<g id="Functionalities" transform="translate(0.000000, 136.000000)">
<g id="Group-Copy-7" transform="translate(0.000000, 288.000000)">
<path d="M77.75,75.2 C76.27,75.2 74.63,74.62 73.47,73.68 L74.25,72.58 C75.37,73.42 76.61,73.9 77.83,73.9 C79.07,73.9 79.97,73.26 79.97,72.26 L79.97,72.22 C79.97,71.18 78.75,70.78 77.39,70.4 C75.77,69.94 73.97,69.38 73.97,67.48 L73.97,67.44 C73.97,65.66 75.45,64.48 77.49,64.48 C78.75,64.48 80.15,64.92 81.21,65.62 L80.51,66.78 C79.55,66.16 78.45,65.78 77.45,65.78 C76.23,65.78 75.45,66.42 75.45,67.28 L75.45,67.32 C75.45,68.3 76.73,68.68 78.11,69.1 C79.71,69.58 81.43,70.2 81.43,72.06 L81.43,72.1 C81.43,74.06 79.81,75.2 77.75,75.2 Z M88.81,75.24 C85.97,75.24 83.65,73.06 83.65,69.86 L83.65,69.82 C83.65,66.84 85.75,64.44 88.61,64.44 C91.67,64.44 93.43,66.88 93.43,69.9 C93.43,70.1 93.43,70.22 93.41,70.4 L85.21,70.4 C85.43,72.64 87.01,73.9 88.85,73.9 C90.27,73.9 91.27,73.32 92.11,72.44 L93.07,73.3 C92.03,74.46 90.77,75.24 88.81,75.24 Z M85.21,69.26 L91.87,69.26 C91.71,67.38 90.63,65.74 88.57,65.74 C86.77,65.74 85.41,67.24 85.21,69.26 Z M99.21,75.22 C97.29,75.22 95.35,74.12 95.35,72 L95.35,71.96 C95.35,69.78 97.15,68.62 99.77,68.62 C101.09,68.62 102.03,68.8 102.95,69.06 L102.95,68.7 C102.95,66.84 101.81,65.88 99.87,65.88 C98.65,65.88 97.69,66.2 96.73,66.64 L96.27,65.38 C97.41,64.86 98.53,64.52 100.03,64.52 C101.49,64.52 102.61,64.9 103.37,65.66 C104.07,66.36 104.43,67.36 104.43,68.68 L104.43,75 L102.95,75 L102.95,73.44 C102.23,74.38 101.03,75.22 99.21,75.22 Z M99.51,74 C101.41,74 102.97,72.84 102.97,71.2 L102.97,70.2 C102.21,69.98 101.19,69.76 99.93,69.76 C97.99,69.76 96.91,70.6 96.91,71.9 L96.91,71.94 C96.91,73.24 98.11,74 99.51,74 Z M107.71,75 L107.71,64.66 L109.25,64.66 L109.25,67.36 C110.01,65.64 111.51,64.4 113.47,64.48 L113.47,66.14 L113.35,66.14 C111.09,66.14 109.25,67.76 109.25,70.88 L109.25,75 L107.71,75 Z M120.03,75.24 C117.01,75.24 114.73,72.78 114.73,69.88 L114.73,69.84 C114.73,66.92 117.01,64.44 120.03,64.44 C121.99,64.44 123.21,65.26 124.17,66.28 L123.15,67.36 C122.33,66.5 121.41,65.8 120.01,65.8 C117.91,65.8 116.31,67.58 116.31,69.8 L116.31,69.84 C116.31,72.08 117.95,73.86 120.11,73.86 C121.43,73.86 122.45,73.2 123.27,72.32 L124.25,73.24 C123.21,74.4 121.97,75.24 120.03,75.24 Z M126.79,75 L126.79,60.4 L128.33,60.4 L128.33,66.46 C129.01,65.34 130.09,64.44 131.87,64.44 C134.37,64.44 135.83,66.12 135.83,68.58 L135.83,75 L134.29,75 L134.29,68.96 C134.29,67.04 133.25,65.84 131.43,65.84 C129.65,65.84 128.33,67.14 128.33,69.08 L128.33,75 L126.79,75 Z" id="search"></path>
</g>
</g>
</g>
</g>
</svg>
