<svg xmlns="http://www.w3.org/2000/svg" width="67" height="19"><path d="M5.08 15.2c-1.48 0-3.12-.58-4.28-1.52l.78-1.1c1.12.84 2.36 1.32 3.58 1.32 1.24 0 2.14-.64 2.14-1.64v-.04c0-1.04-1.22-1.44-2.58-1.82C3.1 9.94 1.3 9.38 1.3 7.48v-.04c0-1.78 1.48-2.96 3.52-2.96 1.26 0 2.66.44 3.72 1.14l-.7 1.16c-.96-.62-2.06-1-3.06-1-1.22 0-2 .64-2 1.5v.04c0 .98 1.28 1.36 2.66 1.78 1.6.48 3.32 1.1 3.32 2.96v.04c0 1.96-1.62 3.1-3.68 3.1zm6.58-12.8V.7h1.76v1.7h-1.76zm.1 12.6V4.66h1.54V15h-1.54zm9.7 3.24c-1.72 0-3.32-.48-4.7-1.44l.7-1.2c1.18.86 2.5 1.32 3.98 1.32 2.28 0 3.76-1.26 3.76-3.68v-1.22c-.9 1.2-2.16 2.18-4.06 2.18-2.48 0-4.86-1.86-4.86-4.84v-.04c0-3.02 2.4-4.88 4.86-4.88 1.94 0 3.2.96 4.04 2.08V4.66h1.54v8.54c0 1.6-.48 2.82-1.32 3.66-.92.92-2.3 1.38-3.94 1.38zm-.02-5.4c1.96 0 3.8-1.42 3.8-3.5V9.3c0-2.12-1.84-3.5-3.8-3.5s-3.58 1.36-3.58 3.48v.04c0 2.08 1.66 3.52 3.58 3.52zM30.16 15V4.66h1.54v1.8c.68-1.12 1.76-2.02 3.54-2.02 2.5 0 3.96 1.68 3.96 4.14V15h-1.54V8.96c0-1.92-1.04-3.12-2.86-3.12-1.78 0-3.1 1.3-3.1 3.24V15h-1.54zm15.4.22c-1.92 0-3.86-1.1-3.86-3.22v-.04c0-2.18 1.8-3.34 4.42-3.34 1.32 0 2.26.18 3.18.44V8.7c0-1.86-1.14-2.82-3.08-2.82-1.22 0-2.18.32-3.14.76l-.46-1.26c1.14-.52 2.26-.86 3.76-.86 1.46 0 2.58.38 3.34 1.14.7.7 1.06 1.7 1.06 3.02V15H49.3v-1.56c-.72.94-1.92 1.78-3.74 1.78zm.3-1.22c1.9 0 3.46-1.16 3.46-2.8v-1c-.76-.22-1.78-.44-3.04-.44-1.94 0-3.02.84-3.02 2.14v.04c0 1.3 1.2 2.06 2.6 2.06zm8.34 1V.4h1.54V15H54.2zm8.54.2c-1.48 0-3.12-.58-4.28-1.52l.78-1.1c1.12.84 2.36 1.32 3.58 1.32 1.24 0 2.14-.64 2.14-1.64v-.04c0-1.04-1.22-1.44-2.58-1.82-1.62-.46-3.42-1.02-3.42-2.92v-.04c0-1.78 1.48-2.96 3.52-2.96 1.26 0 2.66.44 3.72 1.14l-.7 1.16c-.96-.62-2.06-1-3.06-1-1.22 0-2 .64-2 1.5v.04c0 .98 1.28 1.36 2.66 1.78 1.6.48 3.32 1.1 3.32 2.96v.04c0 1.96-1.62 3.1-3.68 3.1z" fill="#D69600" fill-rule="nonzero"/></svg>
