<svg xmlns="http://www.w3.org/2000/svg" width="47" height="16"><path d="M5.14 15.2c-1.48 0-3.12-.58-4.28-1.52l.78-1.1c1.12.84 2.36 1.32 3.58 1.32 1.24 0 2.14-.64 2.14-1.64v-.04c0-1.04-1.22-1.44-2.58-1.82-1.62-.46-3.42-1.02-3.42-2.92v-.04c0-1.78 1.48-2.96 3.52-2.96 1.26 0 2.66.44 3.72 1.14l-.7 1.16c-.96-.62-2.06-1-3.06-1-1.22 0-2 .64-2 1.5v.04c0 .98 1.28 1.36 2.66 1.78 1.6.48 3.32 1.1 3.32 2.96v.04c0 1.96-1.62 3.1-3.68 3.1zm10.34.02c-2.5 0-3.96-1.68-3.96-4.14V4.66h1.54v6.04c0 1.92 1.04 3.12 2.86 3.12 1.76 0 3.1-1.3 3.1-3.24V4.66h1.52V15h-1.52v-1.8c-.7 1.12-1.76 2.02-3.54 2.02zM24.04 2.4V.7h1.76v1.7h-1.76zm.1 12.6V4.66h1.54V15h-1.54zm8.58.18c-1.66 0-2.92-.82-2.92-2.92V6.02h-1.44V4.66h1.44V1.54h1.54v3.12h3.28v1.36h-3.28v6.04c0 1.26.7 1.72 1.74 1.72.52 0 .96-.1 1.5-.36v1.32c-.54.28-1.12.44-1.86.44zm8.84.06c-2.84 0-5.16-2.18-5.16-5.38v-.04c0-2.98 2.1-5.38 4.96-5.38 3.06 0 4.82 2.44 4.82 5.46l-.02.5h-8.2c.22 2.24 1.8 3.5 3.64 3.5 1.42 0 2.42-.58 3.26-1.46l.96.86c-1.04 1.16-2.3 1.94-4.26 1.94zm-3.6-5.98h6.66c-.16-1.88-1.24-3.52-3.3-3.52-1.8 0-3.16 1.5-3.36 3.52z" fill="#D69600" fill-rule="nonzero"/></svg>
